<?xml version="1.0" encoding="utf-8"?>
<!-- Generator: Adobe Illustrator 26.0.1, SVG Export Plug-In . SVG Version: 6.00 Build 0)  -->
<svg version="1.1" id="Capa_1" xmlns="http://www.w3.org/2000/svg" xmlns:xlink="http://www.w3.org/1999/xlink" x="0px" y="0px"
	 viewBox="0 0 1109 282" style="enable-background:new 0 0 1109 282;" xml:space="preserve">
<style type="text/css">
	.st0{fill:#FFFFFF;}
	.st1{fill:#8CC63F;}
</style>
<g>
	<g>
		<path class="st0" d="M191.1,77.3h-54.7v159.2H99.7V77.3h-55V44.9h146.4V77.3z"/>
		<path class="st0" d="M258.1,236.5h-36.7V45.1h36.7V236.5z"/>
	</g>
	<g>
		<path class="st0" d="M597.2,44.9c9.4,0,18.3,1.8,26.6,5.4c8.3,3.6,15.5,8.4,21.6,14.5c6.1,6.1,11,13.3,14.5,21.6
			c3.6,8.3,5.4,17.1,5.4,26.6s-1.6,18.2-4.7,26.2c-3.1,8-7.8,15.1-13.9,21.1c-6.1,6-13.8,10.7-23.2,14.1c-9.3,3.4-20.1,5.1-32.3,5.1
			h-42.7v57.1h-36.7V44.9H597.2z M597.2,146.5c5.4,0,10.1-0.9,14.1-2.7c4-1.8,7.3-4.3,9.8-7.5c2.5-3.1,4.4-6.7,5.6-10.7
			c1.2-4,1.8-8.2,1.8-12.6c0-4.4-0.8-8.7-2.4-13c-1.6-4.3-3.8-8.1-6.8-11.4c-3-3.3-6.6-6-11-8.1c-4.4-2.1-9.4-3.1-15.2-3.1h-44.8
			v69.1H597.2z"/>
		<path class="st0" d="M778.9,240.2c-13.6,0-26.4-2.6-38.5-7.9c-12-5.2-22.6-12.3-31.5-21.3c-9-9-16.1-19.5-21.3-31.5
			c-5.2-12-7.9-25-7.9-38.7c0-13.6,2.6-26.5,7.9-38.6c5.2-12.1,12.3-22.7,21.3-31.7c9-9,19.5-16.1,31.5-21.3
			c12-5.2,24.9-7.9,38.5-7.9c13.8,0,26.7,2.6,38.7,7.9c12,5.2,22.6,12.4,31.5,21.3c9,9,16.1,19.5,21.3,31.7
			c5.2,12.1,7.9,25,7.9,38.6c0,13.8-2.6,26.7-7.9,38.7c-5.2,12-12.3,22.6-21.3,31.5c-9,9-19.5,16.1-31.5,21.3
			S792.7,240.2,778.9,240.2z M779,75.5c-8.7,0-16.9,1.8-24.4,5.4c-7.6,3.6-14.2,8.3-19.9,14.3c-5.7,5.9-10.1,12.9-13.5,20.8
			c-3.3,7.9-5,16.2-5,24.7c0,8.7,1.7,17,5,24.9c3.3,7.9,7.8,14.8,13.5,20.8c5.7,6,12.3,10.8,19.9,14.4c7.6,3.6,15.7,5.4,24.4,5.4
			c8.7,0,16.8-1.8,24.4-5.4c7.6-3.6,14.2-8.4,19.9-14.4c5.7-6,10.1-13,13.5-20.8c3.3-7.9,5-16.1,5-24.9c0-8.5-1.7-16.8-5-24.7
			c-3.3-7.9-7.8-14.9-13.5-20.8c-5.7-5.9-12.3-10.7-19.9-14.3C795.9,77.3,787.7,75.5,779,75.5z"/>
		<path class="st0" d="M996.2,44.9c9.4,0,18.3,1.8,26.6,5.4c8.3,3.6,15.5,8.4,21.6,14.5c6.1,6.1,11,13.3,14.5,21.6
			c3.6,8.3,5.4,17.1,5.4,26.6s-1.6,18.2-4.7,26.2c-3.1,8-7.8,15.1-13.9,21.1c-6.1,6-13.8,10.7-23.2,14.1c-9.3,3.4-20.1,5.1-32.3,5.1
			h-42.7v57.1h-36.7V44.9H996.2z M996.2,146.5c5.4,0,10.1-0.9,14.1-2.7c4-1.8,7.3-4.3,9.8-7.5c2.5-3.1,4.4-6.7,5.6-10.7
			c1.2-4,1.8-8.2,1.8-12.6c0-4.4-0.8-8.7-2.4-13c-1.6-4.3-3.8-8.1-6.8-11.4c-3-3.3-6.6-6-11-8.1c-4.4-2.1-9.4-3.1-15.2-3.1h-44.8
			v69.1H996.2z"/>
	</g>
	<g>
		<path class="st1" d="M490.7,157.6h-85.6v-32.5h85.6V157.6z"/>
	</g>
	<g>
		<path class="st1" d="M468.8,190c-4.2,7.7-9.3,14.6-15.4,20.8c-6.1,6.2-12.9,11.5-20.3,16c-7.4,4.5-15.4,7.9-24.1,10.3
			c-8.6,2.4-17.6,3.7-26.8,3.7c-13.6,0-26.4-2.6-38.5-7.9c-12-5.2-22.6-12.3-31.5-21.3c-9-9-16.1-19.5-21.3-31.5
			c-5.2-12-7.9-24.9-7.9-38.5s2.6-26.4,7.9-38.5s12.3-22.6,21.3-31.5c9-9,19.5-16.1,31.5-21.3c12-5.2,24.9-7.9,38.5-7.9
			c9.2,0,18.2,1.2,26.8,3.7c8.6,2.4,16.7,5.9,24.1,10.3c7.4,4.5,14.2,9.8,20.3,16c6.1,6.2,11.3,13,15.4,20.6l-34.3,13.9
			c-2.8-4.2-6.1-8.1-9.8-11.8c-3.8-3.7-7.9-6.9-12.4-9.7c-4.5-2.8-9.3-5-14.4-6.5c-5.1-1.6-10.3-2.4-15.7-2.4
			c-8.7,0-16.9,1.8-24.5,5.4c-7.6,3.6-14.2,8.3-19.8,14.3c-5.6,5.9-10,12.9-13.4,20.8c-3.3,7.9-5,16.2-5,24.7c0,8.7,1.7,17,5,24.9
			c3.3,7.9,7.8,14.8,13.4,20.7c5.6,5.9,12.2,10.7,19.8,14.3c7.6,3.6,15.7,5.4,24.5,5.4c5.4,0,10.6-0.8,15.7-2.4
			c5.1-1.6,9.9-3.8,14.4-6.5c4.5-2.8,8.7-6.1,12.4-9.8c3.8-3.8,7-7.7,9.8-11.9L468.8,190z"/>
	</g>
</g>
</svg>
