<?xml version="1.0" encoding="utf-8"?>
<!-- Generator: Adobe Illustrator 26.0.1, SVG Export Plug-In . SVG Version: 6.00 Build 0)  -->
<svg version="1.1" id="Capa_1" xmlns="http://www.w3.org/2000/svg" xmlns:xlink="http://www.w3.org/1999/xlink" x="0px" y="0px"
	 viewBox="0 0 1080 1080" style="enable-background:new 0 0 1080 1080;" xml:space="preserve">
<style type="text/css">
	.st0{fill:#8CC63F;}
</style>
<g>
	<path class="st0" d="M1052,618.7H629.7V458.6H1052V618.7z"/>
</g>
<g>
	<path class="st0" d="M943.7,778.3c-20.7,37.9-46.1,72.1-76.2,102.7c-30.1,30.6-63.5,56.8-100.1,78.8c-36.6,22-76.2,39-118.8,51
		c-42.6,12-86.7,18.1-132.4,18.1c-67.1,0-130.4-12.9-189.8-38.7c-59.4-25.8-111.3-60.9-155.6-105.2
		c-44.3-44.3-79.4-96.2-105.2-155.6S26.9,606.6,26.9,539.4S39.8,409,65.6,349.6S126.5,238.3,170.9,194
		c44.3-44.3,96.2-79.4,155.6-105.2S449.2,50,516.3,50c45.6,0,89.7,6,132.4,18.1c42.6,12.1,82.2,29.1,118.8,51
		c36.6,22,69.9,48.2,100.1,78.8c30.1,30.6,55.5,64.4,76.2,101.4l-169.2,68.4c-13.8-20.7-29.9-40-48.4-58.1
		c-18.5-18.1-39-34-61.3-47.8c-22.4-13.8-46.1-24.5-71-32.3c-25-7.7-50.8-11.6-77.5-11.6c-43.1,0-83.3,8.8-120.7,26.5
		c-37.4,17.7-70,41.1-97.5,70.4c-27.6,29.3-49.5,63.5-65.9,102.7c-16.4,39.2-24.5,79.9-24.5,122c0,43.1,8.2,83.9,24.5,122.7
		c16.3,38.7,38.3,72.8,65.9,102c27.5,29.3,60,52.7,97.5,70.4c37.4,17.7,77.7,26.5,120.7,26.5c26.7,0,52.5-3.9,77.5-11.6
		c25-7.8,48.6-18.5,71-32.3c22.4-13.8,42.8-29.9,61.3-48.4c18.5-18.5,34.6-38.1,48.4-58.8L943.7,778.3z"/>
</g>
</svg>
